name Walk3.mot
datacolumns 19
datarows 17
range 2.83600000 2.85200000
endheader

                time	   L_ground_force_vx	   L_ground_force_vy	   L_ground_force_vz	   L_ground_force_px	   L_ground_force_py	   L_ground_force_pz	   R_ground_force_vx	   R_ground_force_vy	   R_ground_force_vz	   R_ground_force_px	   R_ground_force_py	   R_ground_force_pz	   L_ground_torque_x	   L_ground_torque_y	   L_ground_torque_z	   R_ground_torque_x	   R_ground_torque_y	   R_ground_torque_z	
          2.83600000	        -13.71498488	        776.48924798	        -58.68826013	          0.25090033	          0.00000000	          0.12029767	          0.00000000	          0.00000000	          0.00000000	          0.00000000	          0.00000000	          0.00000000	          0.00000000	          7.49222292	          0.00000000	          0.00000000	          0.00000000	          0.00000000	
          2.83700000	        -13.44158947	        775.88535865	        -58.31599209	          0.25111005	          0.00000000	          0.12042611	          0.00000000	          0.00000000	          0.00000000	          0.00000000	          0.00000000	          0.00000000	          0.00000000	          7.43285647	          0.00000000	          0.00000000	          0.00000000	          0.00000000	
          2.83800000	        -13.15975751	        775.30267697	        -57.97189337	          0.25135053	          0.00000000	          0.12055980	          0.00000000	          0.00000000	          0.00000000	          0.00000000	          0.00000000	          0.00000000	          0.00000000	          7.39367611	          0.00000000	          0.00000000	          0.00000000	          0.00000000	
          2.83900000	        -12.87555131	        774.71519921	        -57.64725743	          0.25165145	          0.00000000	          0.12068471	          0.00000000	          0.00000000	          0.00000000	          0.00000000	          0.00000000	          0.00000000	          0.00000000	          7.35464907	          0.00000000	          0.00000000	          0.00000000	          0.00000000	
          2.84000000	        -12.59381795	        774.07665338	        -57.33483206	          0.25199950	          0.00000000	          0.12079285	          0.00000000	          0.00000000	          0.00000000	          0.00000000	          0.00000000	          0.00000000	          0.00000000	          7.29950961	          0.00000000	          0.00000000	          0.00000000	          0.00000000	
          2.84100000	        -12.31075456	        773.33842785	        -57.03872325	          0.25236632	          0.00000000	          0.12087761	          0.00000000	          0.00000000	          0.00000000	          0.00000000	          0.00000000	          0.00000000	          0.00000000	          7.22993973	          0.00000000	          0.00000000	          0.00000000	          0.00000000	
          2.84200000	        -12.02645332	        772.46102847	        -56.76103364	          0.25272524	          0.00000000	          0.12093764	          0.00000000	          0.00000000	          0.00000000	          0.00000000	          0.00000000	          0.00000000	          0.00000000	          7.15888104	          0.00000000	          0.00000000	          0.00000000	          0.00000000	
          2.84300000	        -11.75688051	        771.46583918	        -56.49356958	          0.25305522	          0.00000000	          0.12098820	          0.00000000	          0.00000000	          0.00000000	          0.00000000	          0.00000000	          0.00000000	          0.00000000	          7.09710289	          0.00000000	          0.00000000	          0.00000000	          0.00000000	
          2.84400000	        -11.52182166	        770.44418314	        -56.23006001	          0.25335868	          0.00000000	          0.12105343	          0.00000000	          0.00000000	          0.00000000	          0.00000000	          0.00000000	          0.00000000	          0.00000000	          7.04748085	          0.00000000	          0.00000000	          0.00000000	          0.00000000	
          2.84500000	        -11.32806408	        769.46072750	        -55.97594533	          0.25366459	          0.00000000	          0.12114060	          0.00000000	          0.00000000	          0.00000000	          0.00000000	          0.00000000	          0.00000000	          0.00000000	          7.00530504	          0.00000000	          0.00000000	          0.00000000	          0.00000000	
          2.84600000	        -11.16500651	        768.48220815	        -55.74089654	          0.25400204	          0.00000000	          0.12123138	          0.00000000	          0.00000000	          0.00000000	          0.00000000	          0.00000000	          0.00000000	          0.00000000	          6.96233147	          0.00000000	          0.00000000	          0.00000000	          0.00000000	
          2.84700000	        -11.00960061	        767.43093089	        -55.52747618	          0.25437320	          0.00000000	          0.12130086	          0.00000000	          0.00000000	          0.00000000	          0.00000000	          0.00000000	          0.00000000	          0.00000000	          6.91269547	          0.00000000	          0.00000000	          0.00000000	          0.00000000	
          2.84800000	        -10.83977305	        766.28228055	        -55.32986104	          0.25475367	          0.00000000	          0.12134107	          0.00000000	          0.00000000	          0.00000000	          0.00000000	          0.00000000	          0.00000000	          0.00000000	          6.85610618	          0.00000000	          0.00000000	          0.00000000	          0.00000000	
          2.84900000	        -10.64778335	        765.09107925	        -55.14137310	          0.25511628	          0.00000000	          0.12136541	          0.00000000	          0.00000000	          0.00000000	          0.00000000	          0.00000000	          0.00000000	          0.00000000	          6.79785070	          0.00000000	          0.00000000	          0.00000000	          0.00000000	
          2.85000000	        -10.44114974	        763.92440720	        -54.96112648	          0.25544852	          0.00000000	          0.12139685	          0.00000000	          0.00000000	          0.00000000	          0.00000000	          0.00000000	          0.00000000	          0.00000000	          6.74558551	          0.00000000	          0.00000000	          0.00000000	          0.00000000	
          2.85100000	        -10.23836837	        762.78864403	        -54.79169826	          0.25575282	          0.00000000	          0.12145163	          0.00000000	          0.00000000	          0.00000000	          0.00000000	          0.00000000	          0.00000000	          0.00000000	          6.70119507	          0.00000000	          0.00000000	          0.00000000	          0.00000000	
          2.85200000	        -10.06578991	        761.63596916	        -54.63595447	          0.25603781	          0.00000000	          0.12152606	          0.00000000	          0.00000000	          0.00000000	          0.00000000	          0.00000000	          0.00000000	          0.00000000	          6.65679074	          0.00000000	          0.00000000	          0.00000000	          0.00000000	
